<svg xmlns="http://www.w3.org/2000/svg" width="37" height="42" viewBox="0 0 37 42" fill="none"><path d="M31.2873 42H5.46272C4.01399 42 2.6245 41.4235 1.60011 40.3978C0.575378 39.3721 0 37.9807 0 36.5298V5.47025C0 4.01926 0.575404 2.62794 1.60011 1.60221C2.6245 0.576488 4.01399 0 5.46272 0H31.2873C32.7361 0 34.1255 0.576508 35.1499 1.60221C36.1747 2.62794 36.75 4.01926 36.75 5.47025V36.5298C36.75 37.9807 36.1746 39.3721 35.1499 40.3978C34.1255 41.4235 32.7361 42 31.2873 42ZM33.7705 5.46954C33.7705 4.81013 33.5086 4.17741 33.043 3.71121C32.5774 3.24501 31.9459 2.98312 31.2873 2.98312H5.46271C4.80416 2.98312 4.17263 3.24501 3.70705 3.71121C3.24146 4.17741 2.97957 4.81011 2.97957 5.46954V36.529C2.97957 37.1885 3.24146 37.8212 3.70705 38.2874C4.17263 38.7536 4.80415 39.0155 5.46271 39.0155H31.2873C31.9459 39.0155 32.5774 38.7536 33.043 38.2874C33.5086 37.8212 33.7705 37.1885 33.7705 36.529V5.46954Z" fill="url(#paint0_linear_193_6057)"></path><path d="M9.61029 22.2432H7.15208C6.61963 22.2432 6.1277 21.9587 5.86165 21.4974C5.5956 21.0357 5.5956 20.4669 5.86165 20.0055C6.1277 19.5438 6.61961 19.2593 7.15208 19.2593H9.61029C10.1424 19.2593 10.6343 19.5438 10.9007 20.0055C11.1668 20.4668 11.1668 21.0357 10.9007 21.4974C10.6343 21.9587 10.1424 22.2432 9.61029 22.2432Z" fill="url(#paint1_linear_193_6057)"></path><path d="M29.5983 22.2432H15.0427C14.5103 22.2432 14.0183 21.9587 13.7523 21.4974C13.4862 21.0357 13.4862 20.4669 13.7523 20.0055C14.0183 19.5438 14.5102 19.2593 15.0427 19.2593H29.5983C30.1308 19.2593 30.6227 19.5438 30.8887 20.0055C31.1548 20.4668 31.1548 21.0357 30.8887 21.4974C30.6227 21.9587 30.1308 22.2432 29.5983 22.2432Z" fill="url(#paint2_linear_193_6057)"></path><path d="M9.61029 31.1943H7.15208C6.61963 31.1943 6.1277 30.9099 5.86165 30.4482C5.5956 29.9869 5.5956 29.418 5.86165 28.9566C6.1277 28.495 6.61961 28.2105 7.15208 28.2105H9.61029C10.1424 28.2105 10.6343 28.495 10.9007 28.9566C11.1668 29.418 11.1668 29.9869 10.9007 30.4482C10.6343 30.9099 10.1424 31.1943 9.61029 31.1943Z" fill="url(#paint3_linear_193_6057)"></path><path d="M29.5983 31.1943H15.0427C14.5103 31.1943 14.0183 30.9099 13.7523 30.4482C13.4862 29.9869 13.4862 29.418 13.7523 28.9566C14.0183 28.495 14.5102 28.2105 15.0427 28.2105H29.5983C30.1308 28.2105 30.6227 28.495 30.8887 28.9566C31.1548 29.418 31.1548 29.9869 30.8887 30.4482C30.6227 30.9099 30.1308 31.1943 29.5983 31.1943Z" fill="url(#paint4_linear_193_6057)"></path><path d="M9.61029 13.292H7.15208C6.61963 13.292 6.1277 13.0076 5.86165 12.5462C5.5956 12.0845 5.5956 11.516 5.86165 11.0543C6.1277 10.5926 6.61961 10.3085 7.15208 10.3085H9.61029C10.1424 10.3085 10.6343 10.5926 10.9007 11.0543C11.1668 11.516 11.1668 12.0845 10.9007 12.5462C10.6343 13.0076 10.1424 13.292 9.61029 13.292Z" fill="url(#paint5_linear_193_6057)"></path><path d="M29.5983 13.292H15.0427C14.5103 13.292 14.0183 13.0076 13.7523 12.5462C13.4862 12.0845 13.4862 11.516 13.7523 11.0543C14.0183 10.5926 14.5102 10.3085 15.0427 10.3085H29.5983C30.1308 10.3085 30.6227 10.5926 30.8887 11.0543C31.1548 11.516 31.1548 12.0845 30.8887 12.5462C30.6227 13.0076 30.1308 13.292 29.5983 13.292Z" fill="url(#paint6_linear_193_6057)"></path><defs><linearGradient id="paint0_linear_193_6057" x1="41.9563" y1="-5.04908" x2="-12.3762" y2="28.3387" gradientUnits="userSpaceOnUse"><stop stop-color="#003369"></stop><stop offset="1" stop-color="#3883D3"></stop></linearGradient><linearGradient id="paint1_linear_193_6057" x1="11.8707" y1="18.9006" x2="7.67252" y2="24.2741" gradientUnits="userSpaceOnUse"><stop stop-color="#003369"></stop><stop offset="1" stop-color="#3883D3"></stop></linearGradient><linearGradient id="paint2_linear_193_6057" x1="33.5725" y1="18.9006" x2="31.5921" y2="27.0742" gradientUnits="userSpaceOnUse"><stop stop-color="#003369"></stop><stop offset="1" stop-color="#3883D3"></stop></linearGradient><linearGradient id="paint3_linear_193_6057" x1="11.8707" y1="27.8518" x2="7.67254" y2="33.2253" gradientUnits="userSpaceOnUse"><stop stop-color="#003369"></stop><stop offset="1" stop-color="#3883D3"></stop></linearGradient><linearGradient id="paint4_linear_193_6057" x1="33.5725" y1="27.8518" x2="31.5921" y2="36.0253" gradientUnits="userSpaceOnUse"><stop stop-color="#003369"></stop><stop offset="1" stop-color="#3883D3"></stop></linearGradient><linearGradient id="paint5_linear_193_6057" x1="11.8707" y1="9.94985" x2="7.67312" y2="15.3232" gradientUnits="userSpaceOnUse"><stop stop-color="#003369"></stop><stop offset="1" stop-color="#3883D3"></stop></linearGradient><linearGradient id="paint6_linear_193_6057" x1="33.5725" y1="9.94985" x2="31.5925" y2="18.1226" gradientUnits="userSpaceOnUse"><stop stop-color="#003369"></stop><stop offset="1" stop-color="#3883D3"></stop></linearGradient></defs></svg>