<svg xmlns="http://www.w3.org/2000/svg" width="34" height="42" viewBox="0 0 34 42" fill="none"><path d="M22.78 0H11.22C10.1795 0 9.18168 0.414843 8.44596 1.15327C7.71025 1.89169 7.29692 2.89321 7.29692 3.9375V5.28281H3.92308C2.88261 5.28281 1.88476 5.69766 1.14904 6.43608C0.413323 7.1745 0 8.17602 0 9.22031V27.5625C0 28.6068 0.413323 29.6083 1.14904 30.3467C1.88476 31.0852 2.88261 31.5 3.92308 31.5H7.055L8.5 33.9019C9.58057 35.6773 11.1782 37.0769 13.0769 37.9116V40.6875C13.0769 41.0356 13.2147 41.3694 13.4599 41.6156C13.7052 41.8617 14.0378 42 14.3846 42H25.3365C25.6834 42 26.016 41.8617 26.2612 41.6156C26.5065 41.3694 26.6442 41.0356 26.6442 40.6875V37.2619C28.0508 35.6631 28.8719 33.6305 28.9719 31.5H30.0769C31.1174 31.5 32.1152 31.0852 32.851 30.3467C33.5867 29.6083 34 28.6068 34 27.5625V9.22031C34 8.17602 33.5867 7.1745 32.851 6.43608C32.1152 5.69766 31.1174 5.28281 30.0769 5.28281H26.7031V3.9375C26.7031 2.89321 26.2898 1.89169 25.554 1.15327C24.8183 0.414843 23.8205 0 22.78 0V0ZM9.91231 3.9375C9.91231 3.5894 10.0501 3.25556 10.2953 3.00942C10.5406 2.76328 10.8732 2.625 11.22 2.625H22.78C23.1268 2.625 23.4594 2.76328 23.7047 3.00942C23.9499 3.25556 24.0877 3.5894 24.0877 3.9375V5.28281H9.91231V3.9375ZM26.3696 31.0931C26.3613 32.8679 25.6566 34.5679 24.4081 35.8247C24.1689 36.0702 24.0351 36.4 24.0354 36.7434V39.3684H15.6923V37.0191C15.6926 36.7466 15.6084 36.4809 15.4514 36.2586C15.2944 36.0364 15.0724 35.8687 14.8162 35.7788C13.1226 35.2127 11.6809 34.0676 10.7427 32.5434L7.71538 27.4838C8.05584 27.3457 8.42643 27.2997 8.79014 27.3504C9.15385 27.401 9.49795 27.5466 9.78808 27.7725C9.99077 28.0022 10.8277 29.0063 12.0765 30.555C12.2486 30.7602 12.4792 30.9075 12.7372 30.9772C12.9952 31.0469 13.2683 31.0356 13.5197 30.9448C13.7711 30.854 13.9888 30.6881 14.1434 30.4694C14.298 30.2507 14.3822 29.9897 14.3846 29.7216V14.4375C14.3846 14.2603 14.6004 14.0634 14.9012 14.0634C15.2019 14.0634 15.4177 14.2603 15.4177 14.4375V24.6356C15.4156 24.9591 15.5325 25.2719 15.7461 25.5142C15.9597 25.7564 16.2549 25.9109 16.575 25.9481L25.075 26.9522C25.4084 26.966 25.725 27.1029 25.9639 27.3367C26.2028 27.5705 26.3473 27.8846 26.3696 28.2188V31.0931ZM30.0769 7.90781C30.4237 7.90781 30.7564 8.04609 31.0016 8.29223C31.2468 8.53838 31.3846 8.87222 31.3846 9.22031V27.5625C31.3846 27.9106 31.2468 28.2444 31.0016 28.4906C30.7564 28.7367 30.4237 28.875 30.0769 28.875H28.985V28.2188C28.9612 27.2503 28.586 26.3239 27.9299 25.6134C27.2738 24.9029 26.3819 24.4572 25.4215 24.36L18.0462 23.4675V14.4375C18.0462 13.6021 17.7155 12.8009 17.1269 12.2101C16.5383 11.6194 15.7401 11.2875 14.9077 11.2875C14.0753 11.2875 13.277 11.6194 12.6885 12.2101C12.0999 12.8009 11.7692 13.6021 11.7692 14.4375V26.0728C11.6989 25.9864 11.6224 25.9053 11.5404 25.83C10.6962 25.0972 9.61609 24.6962 8.5 24.7013C7.76129 24.7007 7.03301 24.8762 6.375 25.2131C6.06818 25.3649 5.79631 25.5794 5.57677 25.8426C5.35722 26.1059 5.19484 26.4123 5.1 26.7422C5.00901 27.0599 4.98468 27.393 5.02858 27.7206C5.07247 28.0482 5.18362 28.3631 5.355 28.6453L5.49231 28.875H3.92308C3.57626 28.875 3.24364 28.7367 2.9984 28.4906C2.75316 28.2444 2.61538 27.9106 2.61538 27.5625V9.22031C2.61538 8.87222 2.75316 8.53838 2.9984 8.29223C3.24364 8.04609 3.57626 7.90781 3.92308 7.90781H30.0769Z" fill="url(#paint0_linear_193_6055)"></path><defs><linearGradient id="paint0_linear_193_6055" x1="38.8167" y1="47.0491" x2="-13.5167" y2="17.2963" gradientUnits="userSpaceOnUse"><stop stop-color="#003369"></stop><stop offset="1" stop-color="#3883D3"></stop></linearGradient></defs></svg>