<svg xmlns="http://www.w3.org/2000/svg" width="43" height="42" viewBox="0 0 43 42" fill="none"><path d="M19.9088 34.521H3.63191V29.8116V27.0828V3.40865H26.0697V5.41468C26.0697 6.63627 27.064 7.6299 28.2856 7.6299H30.3882V19.6078C30.8629 19.5515 31.3429 19.5146 31.8317 19.5146C32.58 19.5146 33.3088 19.5924 34.0201 19.7218V6.10727C34.0201 5.54542 33.7895 4.99765 33.3879 4.60409L29.2907 0.598726C28.8957 0.212538 28.3741 0 27.8217 0H2.10191C0.943346 0 0 0.942675 0 2.10191V27.0821V29.8109V35.827C0 36.9856 0.942675 37.9296 2.10191 37.9296H21.2672C20.6524 36.8817 20.1897 35.7372 19.9088 34.521Z" fill="url(#paint0_linear_193_6070)"></path><path d="M21.6611 9.66923C21.5786 9.19186 21.3238 8.74198 20.9276 8.45904C20.0942 7.86568 18.9283 8.0628 18.3248 8.91027L12.6601 16.5764C12.066 17.4104 12.2618 18.573 13.0952 19.1691C13.4123 19.395 13.7844 19.5144 14.1706 19.5144C14.2739 19.5144 14.3765 19.5056 14.4804 19.4882C14.9705 19.4064 15.4009 19.1349 15.6979 18.7172C15.6979 18.7172 21.3573 11.0578 21.3627 11.0511C21.6544 10.6555 21.7435 10.1486 21.6611 9.66923Z" fill="url(#paint1_linear_193_6070)"></path><path d="M14.6865 11.7598C15.3181 10.8345 15.0794 9.56669 14.1541 8.93444C13.2296 8.30219 11.9624 8.54155 11.3301 9.46679C10.6979 10.3914 10.9366 11.6585 11.8625 12.2915C12.2011 12.5228 12.596 12.6448 13.0056 12.6448C13.6794 12.6448 14.3083 12.3136 14.6865 11.7598Z" fill="url(#paint2_linear_193_6070)"></path><path d="M22.1602 15.3351C21.7123 15.0293 21.1726 14.916 20.6382 15.0179C20.1039 15.1185 19.6412 15.4202 19.3355 15.8674C18.7039 16.7927 18.9426 18.0599 19.8679 18.6921C20.2064 18.9234 20.6014 19.0454 21.011 19.0454C21.6848 19.0454 22.3137 18.7142 22.6919 18.1604C23.3234 17.2352 23.0848 15.9673 22.1602 15.3351Z" fill="url(#paint3_linear_193_6070)"></path><path d="M31.8324 21.5264C26.1877 21.5264 21.5957 26.1184 21.5957 31.763C21.5957 37.4077 26.1877 42.0004 31.8324 42.0004C37.477 42.0004 42.0697 37.4077 42.0697 31.763C42.0697 26.1184 37.4777 21.5264 31.8324 21.5264ZM31.8324 38.9987C27.8431 38.9987 24.5974 35.753 24.5974 31.763C24.5974 27.7738 27.8431 24.528 31.8324 24.528C35.8223 24.528 39.0681 27.7738 39.0681 31.763C39.0681 35.753 35.8223 38.9987 31.8324 38.9987Z" fill="url(#paint4_linear_193_6070)"></path><path d="M30.8734 35.4805C30.4443 35.4805 30.0159 35.3169 29.688 34.9897L27.5264 32.8288C26.8714 32.1744 26.8714 31.1131 27.5264 30.4587C28.1801 29.8036 29.2422 29.8036 29.8965 30.4587L30.8727 31.4342L33.7685 28.5391C34.4235 27.8841 35.4842 27.8841 36.1386 28.5391C36.793 29.1942 36.7936 30.2555 36.1386 30.9092L32.0574 34.9897C31.7309 35.3169 31.3025 35.4805 30.8734 35.4805Z" fill="url(#paint5_linear_193_6070)"></path><path d="M11.117 25.6258H7.92226C6.99635 25.6258 6.24609 24.8755 6.24609 23.9496C6.24609 23.0237 6.99635 22.2734 7.92226 22.2734H11.117C12.0429 22.2734 12.7932 23.0237 12.7932 23.9496C12.7932 24.8755 12.0429 25.6258 11.117 25.6258Z" fill="url(#paint6_linear_193_6070)"></path><path d="M24.095 22.2764C22.9552 23.2083 21.983 24.3414 21.2388 25.6287H17.5043C16.579 25.6287 15.8281 24.8778 15.8281 23.9525C15.8281 23.0206 16.579 22.2764 17.5043 22.2764H24.095Z" fill="url(#paint7_linear_193_6070)"></path><path d="M11.117 31.5642H7.92226C6.99635 31.5642 6.24609 30.814 6.24609 29.8881C6.24609 28.9622 6.99635 28.2119 7.92226 28.2119H11.117C12.0429 28.2119 12.7932 28.9622 12.7932 29.8881C12.7932 30.814 12.0429 31.5642 11.117 31.5642Z" fill="url(#paint8_linear_193_6070)"></path><path d="M17.5043 28.2109H20.1124C19.7839 29.277 19.6028 30.3967 19.5894 31.5633H17.5043C16.579 31.5633 15.8281 30.8123 15.8281 29.8871C15.8281 28.9619 16.5797 28.2109 17.5043 28.2109Z" fill="url(#paint9_linear_193_6070)"></path><defs><linearGradient id="paint0_linear_193_6070" x1="38.8396" y1="42.4894" x2="-10.7668" y2="11.2418" gradientUnits="userSpaceOnUse"><stop stop-color="#003369"></stop><stop offset="1" stop-color="#3883D3"></stop></linearGradient><linearGradient id="paint1_linear_193_6070" x1="23.0184" y1="20.8845" x2="8.70263" y2="12.6154" gradientUnits="userSpaceOnUse"><stop stop-color="#003369"></stop><stop offset="1" stop-color="#3883D3"></stop></linearGradient><linearGradient id="paint2_linear_193_6070" x1="15.6152" y1="13.1333" x2="10.0726" y2="9.24154" gradientUnits="userSpaceOnUse"><stop stop-color="#003369"></stop><stop offset="1" stop-color="#3883D3"></stop></linearGradient><linearGradient id="paint3_linear_193_6070" x1="23.6205" y1="19.534" x2="18.078" y2="15.6428" gradientUnits="userSpaceOnUse"><stop stop-color="#003369"></stop><stop offset="1" stop-color="#3883D3"></stop></linearGradient><linearGradient id="paint4_linear_193_6070" x1="44.9702" y1="44.4617" x2="17.044" y2="24.8493" gradientUnits="userSpaceOnUse"><stop stop-color="#003369"></stop><stop offset="1" stop-color="#3883D3"></stop></linearGradient><linearGradient id="paint5_linear_193_6070" x1="37.9888" y1="36.374" x2="27.2628" y2="26.6502" gradientUnits="userSpaceOnUse"><stop stop-color="#003369"></stop><stop offset="1" stop-color="#3883D3"></stop></linearGradient><linearGradient id="paint6_linear_193_6070" x1="13.7207" y1="26.0288" x2="9.09261" y2="19.681" gradientUnits="userSpaceOnUse"><stop stop-color="#003369"></stop><stop offset="1" stop-color="#3883D3"></stop></linearGradient><linearGradient id="paint7_linear_193_6070" x1="25.2661" y1="26.0317" x2="21.0561" y2="18.7405" gradientUnits="userSpaceOnUse"><stop stop-color="#003369"></stop><stop offset="1" stop-color="#3883D3"></stop></linearGradient><linearGradient id="paint8_linear_193_6070" x1="13.7207" y1="31.9672" x2="9.09261" y2="25.6194" gradientUnits="userSpaceOnUse"><stop stop-color="#003369"></stop><stop offset="1" stop-color="#3883D3"></stop></linearGradient><linearGradient id="paint9_linear_193_6070" x1="20.7193" y1="31.9663" x2="15.8866" y2="27.6287" gradientUnits="userSpaceOnUse"><stop stop-color="#003369"></stop><stop offset="1" stop-color="#3883D3"></stop></linearGradient></defs></svg>