<svg xmlns="http://www.w3.org/2000/svg" width="32" height="42" viewBox="0 0 32 42" fill="none"><path d="M30.5811 8.7173L22.6714 1.23424C21.8301 0.438293 20.7289 0 19.5708 0H4.51172C2.02396 0 0 2.02396 0 4.51172V37.4883C0 39.976 2.02396 42 4.51172 42H27.4805C29.9682 42 31.9922 39.976 31.9922 37.4883V11.9948C31.9922 10.7603 31.4779 9.56566 30.5811 8.7173ZM28.1909 9.84375H22.0664C21.8402 9.84375 21.6562 9.65975 21.6562 9.43359V3.66155L28.1909 9.84375ZM27.4805 39.5391H4.51172C3.38092 39.5391 2.46094 38.6191 2.46094 37.4883V4.51172C2.46094 3.38092 3.38092 2.46094 4.51172 2.46094H19.1953V9.43359C19.1953 11.0167 20.4833 12.3047 22.0664 12.3047H29.5312V37.4883C29.5312 38.6191 28.6113 39.5391 27.4805 39.5391Z" fill="url(#paint0_linear_193_6065)"></path><path d="M24.7734 16.4062H6.72656C6.04702 16.4062 5.49609 16.9572 5.49609 17.6367C5.49609 18.3163 6.04702 18.8672 6.72656 18.8672H24.7734C25.453 18.8672 26.0039 18.3163 26.0039 17.6367C26.0039 16.9572 25.453 16.4062 24.7734 16.4062Z" fill="url(#paint1_linear_193_6065)"></path><path d="M24.7734 22.9688H6.72656C6.04702 22.9688 5.49609 23.5197 5.49609 24.1992C5.49609 24.8788 6.04702 25.4297 6.72656 25.4297H24.7734C25.453 25.4297 26.0039 24.8788 26.0039 24.1992C26.0039 23.5197 25.453 22.9688 24.7734 22.9688Z" fill="url(#paint2_linear_193_6065)"></path><path d="M12.6919 29.5312H6.72656C6.04702 29.5312 5.49609 30.0822 5.49609 30.7617C5.49609 31.4413 6.04702 31.9922 6.72656 31.9922H12.6919C13.3714 31.9922 13.9223 31.4413 13.9223 30.7617C13.9223 30.0822 13.3714 29.5312 12.6919 29.5312Z" fill="url(#paint3_linear_193_6065)"></path><defs><linearGradient id="paint0_linear_193_6065" x1="36.5244" y1="47.0491" x2="-14.1369" y2="19.9477" gradientUnits="userSpaceOnUse"><stop stop-color="#003369"></stop><stop offset="1" stop-color="#3883D3"></stop></linearGradient><linearGradient id="paint1_linear_193_6065" x1="28.9092" y1="19.163" x2="27.7243" y2="12.2285" gradientUnits="userSpaceOnUse"><stop stop-color="#003369"></stop><stop offset="1" stop-color="#3883D3"></stop></linearGradient><linearGradient id="paint2_linear_193_6065" x1="28.9092" y1="25.7255" x2="27.7243" y2="18.791" gradientUnits="userSpaceOnUse"><stop stop-color="#003369"></stop><stop offset="1" stop-color="#3883D3"></stop></linearGradient><linearGradient id="paint3_linear_193_6065" x1="15.1161" y1="32.288" x2="12.5857" y2="26.2034" gradientUnits="userSpaceOnUse"><stop stop-color="#003369"></stop><stop offset="1" stop-color="#3883D3"></stop></linearGradient></defs></svg>